HIERARCHY
ROOT joint_Root
{
	OFFSET 0.0 0.0 0.0
	CHANNELS 6 Xposition Yposition Zposition Zrotation Xrotation Yrotation 
	JOINT Hips
	{
		OFFSET -17.1583 93.1646 452.98
		CHANNELS 6 Xposition Yposition Zposition Zrotation Xrotation Yrotation 
		JOINT Spine
		{
			OFFSET 15.7357 0.0 0.0
			CHANNELS 6 Xposition Yposition Zposition Zrotation Xrotation Yrotation 
			JOINT Chest
			{
				OFFSET 8.98455 -0.406207 0.0
				CHANNELS 6 Xposition Yposition Zposition Zrotation Xrotation Yrotation 
				JOINT Neck
				{
					OFFSET 16.3773 0.0 0.0
					CHANNELS 6 Xposition Yposition Zposition Zrotation Xrotation Yrotation 
					JOINT Head
					{
						OFFSET 6.45672 0.0 0.0
						CHANNELS 6 Xposition Yposition Zposition Zrotation Xrotation Yrotation 
						End Site
						{
							OFFSET 0.0 0.0 0.0
						}
					}
				}
				JOINT Shoulder_L
				{
					OFFSET 12.9942 -0.242716 4.98039
					CHANNELS 6 Xposition Yposition Zposition Zrotation Xrotation Yrotation 
					JOINT UpperArm_L
					{
						OFFSET 5.34809 0.0 0.0
						CHANNELS 6 Xposition Yposition Zposition Zrotation Xrotation Yrotation 
						JOINT LowerArm_L
						{
							OFFSET 24.3286 1.87007e-05 0.0
							CHANNELS 6 Xposition Yposition Zposition Zrotation Xrotation Yrotation 
							JOINT Hand_L
							{
								OFFSET 22.2916 0.0 0.0
								CHANNELS 6 Xposition Yposition Zposition Zrotation Xrotation Yrotation 
								End Site
								{
									OFFSET 0.0 0.0 0.0
								}
							}
						}
					}
				}
				JOINT Shoulder_R
				{
					OFFSET 12.9945 -0.242716 -4.98039
					CHANNELS 6 Xposition Yposition Zposition Zrotation Xrotation Yrotation 
					JOINT UpperArm_R
					{
						OFFSET -5.34813 0.0 0.0
						CHANNELS 6 Xposition Yposition Zposition Zrotation Xrotation Yrotation 
						JOINT LowerArm_R
						{
							OFFSET -24.3289 0.000322201 0.0
							CHANNELS 6 Xposition Yposition Zposition Zrotation Xrotation Yrotation 
							JOINT Hand_R
							{
								OFFSET -22.2915 -0.000108084 0.0
								CHANNELS 6 Xposition Yposition Zposition Zrotation Xrotation Yrotation 
								End Site
								{
									OFFSET 0.0 0.0 0.0
								}
							}
						}
					}
				}
			}
		}
		JOINT UpperLeg_L
		{
			OFFSET -2.19248 -6.46944 0.0
			CHANNELS 6 Xposition Yposition Zposition Zrotation Xrotation Yrotation 
			JOINT LowerLeg_L
			{
				OFFSET 39.0811 0.0 -1.23785e-05
				CHANNELS 6 Xposition Yposition Zposition Zrotation Xrotation Yrotation 
				JOINT Foot_L
				{
					OFFSET 40.9854 0.0 -1.26872e-05
					CHANNELS 6 Xposition Yposition Zposition Zrotation Xrotation Yrotation 
					JOINT Toes_L
					{
						OFFSET 11.7543 0.0 0.0
						CHANNELS 6 Xposition Yposition Zposition Zrotation Xrotation Yrotation 
						End Site
						{
							OFFSET 0.0 0.0 0.0
						}
					}
				}
			}
		}
		JOINT UpperLeg_R
		{
			OFFSET -2.19251 6.46944 0.0
			CHANNELS 6 Xposition Yposition Zposition Zrotation Xrotation Yrotation 
			JOINT LowerLeg_R
			{
				OFFSET -39.0811 -0.00228153 -0.0401928
				CHANNELS 6 Xposition Yposition Zposition Zrotation Xrotation Yrotation 
				JOINT Foot_R
				{
					OFFSET -40.9854 0.0 0.0
					CHANNELS 6 Xposition Yposition Zposition Zrotation Xrotation Yrotation 
					JOINT Toes_R
					{
						OFFSET -11.7543 0.0 0.0
						CHANNELS 6 Xposition Yposition Zposition Zrotation Xrotation Yrotation 
						End Site
						{
							OFFSET 0.0 0.0 0.0
						}
					}
				}
			}
		}
	}
}
MOTION
Frames:	4
Frame Time:	0.0333333
0.000000 0.000000 0.000000 0.000000 0.000000 -0.000000 -2.847780 92.831700 1.601930 88.496500 3.252980 -0.795852 15.735700 0.000005 -0.000001 100.077000 88.831400 -99.195100 8.984550 -0.406207 -0.000000 -5.466650 0.306690 1.779810 16.377300 -0.000001 -0.000001 4.535180 -0.544339 -1.594730 6.456720 -0.000001 -0.000000 7.196910 -1.978150 4.413920 12.994200 -0.242716 4.980390 -92.521600 7.704280 -71.814900 5.348090 -0.000007 -0.000001 -73.004500 24.220300 1.921110 24.328600 0.000019 0.000005 16.157700 29.923700 -30.147500 22.291600 -0.000001 0.000005 -7.310660 5.087940 5.388560 12.994500 -0.242716 -4.980390 88.434500 5.309900 -73.547000 -5.348130 -0.000001 -0.000004 -72.007200 32.539200 -1.394060 -24.328900 0.000322 -0.000009 2.762640 8.717720 -17.666300 -22.291500 -0.000108 -0.000004 -0.211764 5.227080 2.030890 -2.192480 -6.469440 -0.000000 -176.314000 0.596557 -2.291060 39.081100 -0.000007 -0.000012 0.138439 -0.445527 17.261800 40.985400 -0.000006 -0.000013 0.482518 10.630500 -71.353500 11.754300 -0.000000 0.000003 -0.000040 0.168301 -9.750570 -2.192510 6.469440 -0.000001 -175.355000 9.922220 -177.730000 -39.081100 -0.002282 -0.040193 0.002017 0.007083 10.564100 -40.985400 0.000008 0.000006 -2.006300 4.435300 -68.480600 -11.754300 -0.000006 -0.000006 -0.011140 0.279631 -5.210300
0.000000 0.000000 0.000000 0.000000 0.000000 -0.000000 -2.849270 92.836100 1.562160 88.502800 3.143720 -0.845780 15.735700 0.000005 -0.000001 99.726300 88.827400 -98.839100 8.984550 -0.406207 -0.000000 -5.456240 0.293417 1.790250 16.377300 -0.000001 -0.000001 4.387340 -0.558477 -1.588120 6.456720 -0.000001 -0.000000 7.196650 -1.971950 4.379960 12.994200 -0.242716 4.980390 -92.503900 7.651430 -71.818700 5.348090 -0.000007 -0.000001 -72.685600 23.265200 1.773470 24.328600 0.000019 0.000005 16.907800 30.071300 -31.242400 22.291600 -0.000001 0.000005 -7.436930 5.075930 5.660110 12.994500 -0.242716 -4.980390 88.435300 5.306780 -73.545900 -5.348130 -0.000001 -0.000004 -71.953000 32.596000 -1.491430 -24.328900 0.000322 -0.000009 2.759710 8.679740 -17.720500 -22.291500 -0.000108 -0.000004 -0.221587 5.224820 2.089140 -2.192480 -6.469440 -0.000000 -176.320000 0.619780 -2.375230 39.081100 -0.000007 -0.000012 0.135806 -0.436499 17.282400 40.985400 -0.000006 -0.000013 0.356535 10.553400 -71.280100 11.754300 -0.000000 0.000003 -0.000043 0.168339 -9.749040 -2.192510 6.469440 -0.000001 -175.344000 9.877460 -177.823000 -39.081100 -0.002282 -0.040193 0.002577 0.004070 10.585900 -40.985400 0.000008 0.000006 -1.878090 4.467480 -68.470400 -11.754300 -0.000006 -0.000006 -0.010891 0.277848 -5.283290
0.000000 0.000000 0.000000 0.000000 0.000000 -0.000000 -2.874560 92.840800 1.530580 88.448500 3.084660 -0.851282 15.735700 0.000005 -0.000001 98.145500 88.814600 -97.228100 8.984550 -0.406207 -0.000000 -5.420330 0.230016 1.847470 16.377300 -0.000001 -0.000001 4.333650 -0.569983 -1.600250 6.456720 -0.000001 -0.000000 7.022560 -2.007900 4.314380 12.994200 -0.242716 4.980390 -92.505100 7.651110 -71.809200 5.348090 -0.000007 -0.000001 -72.291200 22.035800 1.842410 24.328600 0.000019 0.000005 17.819400 29.620500 -33.038000 22.291600 -0.000001 0.000005 -7.566570 5.063850 5.930440 12.994500 -0.242716 -4.980390 88.421200 5.333930 -73.485000 -5.348130 -0.000001 -0.000004 -71.878300 32.560600 -1.597480 -24.328900 0.000322 -0.000009 2.761980 8.680170 -17.733500 -22.291500 -0.000108 -0.000004 -0.101928 5.227610 2.017520 -2.192480 -6.469440 -0.000000 -176.255000 0.621159 -2.408650 39.081100 -0.000007 -0.000012 0.136188 -0.436958 17.311100 40.985400 -0.000006 -0.000013 0.351473 10.499400 -71.304600 11.754300 -0.000000 0.000003 -0.000095 0.169206 -9.713830 -2.192510 6.469440 -0.000001 -175.291000 9.894020 -177.812000 -39.081100 -0.002282 -0.040193 0.001866 0.007932 10.510600 -40.985400 0.000008 0.000006 -1.931260 4.567230 -68.401200 -11.754300 -0.000006 -0.000006 -0.011069 0.279127 -5.230920
0.000000 0.000000 0.000000 0.000000 0.000000 -0.000000 -2.889720 92.845100 1.481820 88.398600 2.980060 -0.908698 15.735700 0.000005 -0.000001 97.013400 88.807700 -96.069900 8.984550 -0.406207 -0.000000 -5.400140 0.182468 1.897590 16.377300 -0.000001 -0.000001 4.201830 -0.596771 -1.574950 6.456720 -0.000001 -0.000000 6.884980 -2.031950 4.157090 12.994200 -0.242716 4.980390 -92.510300 7.620040 -71.705300 5.348090 -0.000007 -0.000001 -71.819700 20.777400 1.886100 24.328600 0.000019 0.000005 18.719800 28.611200 -35.285000 22.291600 -0.000001 0.000005 -7.514870 5.059340 6.030680 12.994500 -0.242716 -4.980390 88.425300 5.319420 -73.483600 -5.348130 -0.000001 -0.000004 -71.879200 32.463300 -1.667650 -24.328900 0.000322 -0.000009 2.766120 8.673660 -17.770800 -22.291500 -0.000108 -0.000004 -0.057917 5.227460 2.021150 -2.192480 -6.469440 -0.000000 -176.199000 0.615072 -2.538040 39.081100 -0.000007 -0.000012 0.136890 -0.436926 17.396100 40.985400 -0.000006 -0.000013 0.233236 10.388000 -71.286200 11.754300 -0.000000 0.000003 -0.000101 0.169299 -9.710030 -2.192510 6.469440 -0.000001 -175.226000 9.813740 -177.910000 -39.081100 -0.002282 -0.040193 0.001811 0.008234 10.502700 -40.985400 0.000008 0.000006 -1.994580 4.609110 -68.305700 -11.754300 -0.000006 -0.000006 -0.010658 0.276161 -5.352320
